<svg xmlns="http://www.w3.org/2000/svg" width="300" height="300" fill="none" viewBox="0 0 300 300">
  <path fill="#999B64" d="M50.523 78.187c.78-1.917 1.67-2.07 3.522-1.767 4.319 0 3.681 5.515 1.371 7.476-.85.721-2.95.748-3.877.17-1.14-.71-1.152-1.266-1.152-2.515 0-.983-.246-2.427.136-3.364ZM47.38 263.644c.78-1.916 1.67-2.07 3.521-1.767 4.32 0 3.682 5.515 1.372 7.477-.85.721-2.95.747-3.878.17-1.139-.71-1.151-1.266-1.151-2.515 0-.983-.247-2.428.135-3.365Z"/>
  <path fill="#D88D3A" d="M201.93 78.187c.781-1.917 1.671-2.07 3.522-1.767 4.319 0 3.682 5.515 1.372 7.476-.85.721-2.951.748-3.878.17-1.139-.71-1.152-1.266-1.152-2.515 0-.983-.246-2.427.136-3.364Z"/>
  <path fill="#2C3134" d="M198.787 263.644c.781-1.916 1.671-2.07 3.522-1.767 4.319 0 3.682 5.515 1.371 7.477-.849.721-2.951.747-3.878.17-1.138-.71-1.151-1.266-1.151-2.515 0-.983-.247-2.428.136-3.365Z"/>
  <path fill="#D88D3A" d="M50.523 170.601c.78-1.916 1.67-2.07 3.522-1.767 4.319 0 3.681 5.515 1.371 7.477-.85.721-2.95.747-3.877.169-1.14-.709-1.152-1.266-1.152-2.514 0-.984-.246-2.428.136-3.365Z"/>
  <path fill="#2C3134" d="M201.93 170.601c.781-1.916 1.671-2.07 3.522-1.767 4.319 0 3.682 5.515 1.372 7.477-.85.721-2.951.747-3.878.169-1.139-.709-1.152-1.266-1.152-2.514 0-.984-.246-2.428.136-3.365ZM127.22 30.408c.782-1.916 1.671-2.07 3.522-1.767 4.32 0 3.682 5.515 1.372 7.476-.85.722-2.951.748-3.878.17-1.139-.709-1.151-1.266-1.151-2.514 0-.984-.247-2.428.135-3.365Z"/>
  <path fill="#D88D3A" d="M124.077 215.866c.781-1.917 1.671-2.071 3.522-1.767 4.319 0 3.682 5.514 1.372 7.476-.85.721-2.951.747-3.878.17-1.139-.709-1.152-1.266-1.152-2.515 0-.984-.246-2.428.136-3.364Z"/>
  <path fill="#999B64" d="M278.525 30.408c.782-1.916 1.672-2.07 3.523-1.767 4.319 0 3.682 5.515 1.372 7.476-.85.722-2.951.748-3.878.17-1.139-.709-1.152-1.266-1.152-2.514 0-.984-.246-2.428.135-3.365Zm-3.142 185.458c.781-1.917 1.671-2.071 3.522-1.767 4.319 0 3.681 5.514 1.371 7.476-.849.721-2.951.747-3.878.17-1.138-.709-1.151-1.266-1.151-2.515 0-.984-.247-2.428.136-3.364ZM127.22 122.822c.782-1.916 1.671-2.07 3.522-1.767 4.32 0 3.682 5.515 1.372 7.476-.85.722-2.951.748-3.878.171-1.139-.709-1.151-1.267-1.151-2.515 0-.984-.247-2.428.135-3.365Zm151.305 0c.782-1.916 1.672-2.07 3.523-1.767 4.319 0 3.682 5.515 1.372 7.476-.85.722-2.951.748-3.878.171-1.139-.709-1.152-1.267-1.152-2.515 0-.984-.246-2.428.135-3.365ZM89.5 54.926c.781-1.916 1.671-2.07 3.522-1.767 4.32 0 3.682 5.515 1.372 7.476-.85.722-2.95.748-3.878.17-1.139-.709-1.151-1.266-1.151-2.515 0-.983-.247-2.427.135-3.364Z"/>
  <path fill="#D88D3A" d="M86.357 240.383c.78-1.916 1.67-2.07 3.522-1.767 4.32 0 3.681 5.516 1.371 7.477-.85.721-2.95.748-3.877.17-1.14-.709-1.152-1.266-1.152-2.515 0-.983-.246-2.427.136-3.365Z"/>
  <path fill="#2C3134" d="M240.907 54.926c.781-1.916 1.672-2.07 3.522-1.767 4.32 0 3.682 5.515 1.372 7.476-.85.722-2.95.748-3.877.17-1.139-.709-1.152-1.266-1.152-2.515 0-.983-.246-2.427.135-3.364Zm-3.143 185.457c.781-1.916 1.671-2.07 3.522-1.767 4.319 0 3.682 5.516 1.372 7.477-.85.721-2.951.748-3.878.17-1.139-.709-1.151-1.266-1.151-2.515 0-.983-.247-2.427.135-3.365Z"/>
  <path fill="#999B64" d="M89.5 147.34c.781-1.916 1.671-2.07 3.522-1.767 4.32 0 3.682 5.515 1.372 7.477-.85.721-2.95.747-3.878.17-1.139-.71-1.151-1.266-1.151-2.515 0-.983-.247-2.428.135-3.365Z"/>
  <path fill="#2C3134" d="M240.907 147.34c.781-1.916 1.672-2.07 3.522-1.767 4.32 0 3.682 5.515 1.372 7.477-.85.721-2.95.747-3.877.17-1.139-.71-1.152-1.266-1.152-2.515 0-.983-.246-2.428.135-3.365Z"/>
  <path fill="#D88D3A" d="M166.198 7.147c.781-1.916 1.671-2.07 3.522-1.767 4.319 0 3.682 5.515 1.371 7.477-.849.721-2.95.747-3.878.17-1.138-.71-1.151-1.267-1.151-2.515 0-.984-.246-2.428.136-3.365Zm-3.144 185.458c.781-1.917 1.672-2.071 3.522-1.767 4.32 0 3.682 5.514 1.372 7.476-.85.722-2.95.747-3.877.17-1.139-.709-1.152-1.266-1.152-2.515 0-.983-.246-2.428.135-3.364Zm3.144-93.043c.781-1.917 1.671-2.071 3.522-1.767 4.319 0 3.682 5.514 1.371 7.476-.849.721-2.95.747-3.878.17-1.138-.709-1.151-1.267-1.151-2.515 0-.984-.246-2.428.136-3.364Zm-3.144 185.457c.781-1.916 1.672-2.07 3.522-1.767 4.32 0 3.682 5.515 1.372 7.476-.85.722-2.95.748-3.877.171-1.139-.71-1.152-1.267-1.152-2.516 0-.983-.246-2.427.135-3.364ZM68.62 69.778c-.313-1.591.272-3.378 2.089-3.539 1.58.627 3.837.263 4.591 2.199.877 2.25 1.316 5.321-.311 7.386-.922 1.169-2.334 1.29-3.726.91-1.205-.33-1.022-1.667-1.022-2.62 0-.634-.019-1.287-.278-1.88-.376-.864-1.156-1.513-1.342-2.456Zm-3.143 185.457c-.313-1.59.272-3.378 2.088-3.538 1.581.627 3.837.262 4.592 2.198.877 2.25 1.315 5.322-.312 7.386-.92 1.169-2.333 1.291-3.725.911-1.205-.33-1.023-1.668-1.023-2.62 0-.634-.018-1.288-.277-1.88-.376-.864-1.156-1.513-1.343-2.457Z"/>
  <path fill="#999B64" d="M220.028 69.778c-.314-1.591.272-3.378 2.088-3.539 1.581.627 3.837.263 4.592 2.199.877 2.25 1.315 5.321-.312 7.386-.921 1.169-2.334 1.29-3.725.91-1.205-.33-1.023-1.667-1.023-2.62 0-.634-.019-1.287-.277-1.88-.377-.864-1.157-1.513-1.343-2.456Z"/>
  <path fill="#D88D3A" d="M216.885 255.235c-.314-1.59.272-3.378 2.088-3.538 1.581.627 3.837.262 4.592 2.198.876 2.25 1.315 5.322-.312 7.386-.922 1.169-2.334 1.291-3.726.911-1.204-.33-1.022-1.668-1.022-2.62 0-.634-.019-1.288-.277-1.88-.377-.864-1.157-1.513-1.343-2.457ZM68.62 162.192c-.313-1.591.272-3.378 2.089-3.538 1.58.627 3.837.262 4.591 2.198.877 2.25 1.316 5.322-.311 7.386-.922 1.169-2.334 1.291-3.726.91-1.205-.329-1.022-1.667-1.022-2.619 0-.634-.019-1.288-.278-1.881-.376-.864-1.156-1.512-1.342-2.456Z"/>
  <path fill="#999B64" d="M220.028 162.192c-.314-1.591.272-3.378 2.088-3.538 1.581.627 3.837.262 4.592 2.198.877 2.25 1.315 5.322-.312 7.386-.921 1.169-2.334 1.291-3.725.91-1.205-.329-1.023-1.667-1.023-2.619 0-.634-.019-1.288-.277-1.881-.377-.864-1.157-1.512-1.343-2.456Zm-74.71-140.193c-.314-1.591.272-3.378 2.088-3.538 1.581.627 3.837.262 4.593 2.198.876 2.25 1.314 5.321-.312 7.386-.922 1.168-2.334 1.29-3.726.91-1.205-.33-1.022-1.667-1.022-2.62 0-.634-.019-1.287-.277-1.88-.377-.864-1.157-1.512-1.344-2.456Zm-3.143 185.458c-.314-1.592.271-3.378 2.088-3.539 1.581.627 3.837.262 4.592 2.199.877 2.249 1.315 5.321-.312 7.385-.922 1.169-2.334 1.291-3.725.91-1.205-.329-1.023-1.666-1.023-2.619 0-.634-.019-1.287-.277-1.881-.377-.864-1.157-1.512-1.343-2.455Zm3.143-93.044c-.314-1.591.272-3.378 2.088-3.538 1.581.627 3.837.262 4.593 2.199.876 2.249 1.314 5.32-.312 7.385-.922 1.169-2.334 1.291-3.726.91-1.205-.329-1.022-1.667-1.022-2.619 0-.635-.019-1.288-.277-1.881-.377-.864-1.157-1.512-1.344-2.456Zm-37.72-67.896c-.314-1.591.272-3.378 2.089-3.538 1.581.627 3.837.262 4.591 2.198.877 2.25 1.316 5.321-.312 7.386-.921 1.169-2.334 1.29-3.725.91-1.205-.33-1.022-1.667-1.022-2.62 0-.634-.02-1.287-.278-1.88-.376-.864-1.156-1.512-1.343-2.456Zm-3.143 185.457c-.314-1.59.272-3.378 2.088-3.538 1.581.627 3.837.262 4.592 2.199.877 2.249 1.315 5.321-.312 7.386-.922 1.168-2.334 1.29-3.725.91-1.205-.33-1.023-1.668-1.023-2.62 0-.634-.019-1.287-.277-1.88-.377-.864-1.157-1.513-1.343-2.457ZM258.904 46.517c-.314-1.591.271-3.378 2.088-3.538 1.581.627 3.837.262 4.591 2.198.878 2.25 1.316 5.321-.311 7.386-.922 1.169-2.334 1.29-3.726.91-1.204-.33-1.022-1.667-1.022-2.62 0-.634-.019-1.287-.278-1.88-.376-.864-1.156-1.512-1.342-2.456Z"/>
  <path fill="#D88D3A" d="M255.76 231.974c-.314-1.59.272-3.378 2.088-3.538 1.581.627 3.837.262 4.592 2.199.877 2.249 1.315 5.321-.311 7.386-.922 1.168-2.334 1.29-3.726.91-1.205-.33-1.022-1.668-1.022-2.62 0-.634-.019-1.287-.278-1.88-.376-.864-1.156-1.513-1.343-2.457Zm-148.162-93.043c-.314-1.59.272-3.378 2.089-3.538 1.581.627 3.837.262 4.591 2.198.877 2.25 1.316 5.322-.312 7.386-.921 1.169-2.334 1.291-3.725.911-1.205-.33-1.022-1.668-1.022-2.62 0-.634-.02-1.288-.278-1.88-.376-.864-1.156-1.513-1.343-2.457Zm151.306 0c-.314-1.59.271-3.378 2.088-3.538 1.581.627 3.837.262 4.591 2.198.878 2.25 1.316 5.322-.311 7.386-.922 1.169-2.334 1.291-3.726.911-1.204-.33-1.022-1.668-1.022-2.62 0-.634-.019-1.288-.278-1.88-.376-.864-1.156-1.513-1.342-2.457Z"/>
  <path fill="#2C3134" d="M87.456 78.593c-.56 3.33 3.31 3.473 5.47 3.327 1.497-.1 3.057-1.252 3.259-2.87.25-1.998-2.343-3.18-3.592-3.764-1.998-.935-4.74.946-5.138 3.307Zm-3.144 185.458c-.56 3.329 3.31 3.472 5.47 3.326 1.497-.1 3.057-1.252 3.26-2.87.249-1.997-2.344-3.18-3.592-3.764-1.998-.935-4.742.947-5.138 3.308Z"/>
  <path fill="#D88D3A" d="M238.862 78.593c-.56 3.33 3.311 3.473 5.471 3.327 1.497-.1 3.057-1.252 3.259-2.87.25-1.998-2.343-3.18-3.592-3.764-1.998-.935-4.74.946-5.138 3.307Z"/>
  <path fill="#2C3134" d="M235.719 264.051c-.56 3.329 3.311 3.472 5.471 3.326 1.496-.1 3.057-1.252 3.259-2.87.25-1.997-2.344-3.18-3.592-3.764-1.998-.935-4.741.947-5.138 3.308Z"/>
  <path fill="#D88D3A" d="M87.456 171.008c-.56 3.329 3.31 3.471 5.47 3.326 1.497-.1 3.057-1.252 3.259-2.87.25-1.998-2.343-3.18-3.592-3.764-1.998-.935-4.74.947-5.138 3.308Z"/>
  <path fill="#2C3134" d="M238.862 171.008c-.56 3.329 3.311 3.471 5.471 3.326 1.497-.1 3.057-1.252 3.259-2.87.25-1.998-2.343-3.18-3.592-3.764-1.998-.935-4.74.947-5.138 3.308Z"/>
  <path fill="#D88D3A" d="M164.153 30.814c-.561 3.33 3.311 3.473 5.471 3.327 1.496-.1 3.057-1.252 3.259-2.87.249-1.998-2.344-3.18-3.592-3.764-1.998-.935-4.741.947-5.138 3.307Z"/>
  <path fill="#2C3134" d="M161.009 216.272c-.56 3.33 3.311 3.472 5.471 3.327 1.497-.101 3.057-1.253 3.259-2.871.25-1.998-2.343-3.18-3.592-3.764-1.998-.934-4.74.947-5.138 3.308Z"/>
  <path fill="#D88D3A" d="M164.153 123.229c-.561 3.33 3.311 3.472 5.471 3.327 1.496-.101 3.057-1.253 3.259-2.871.249-1.998-2.344-3.18-3.592-3.764-1.998-.934-4.741.947-5.138 3.308Z"/>
  <path fill="#2C3134" d="M126.432 55.333c-.56 3.33 3.311 3.471 5.471 3.326 1.497-.1 3.057-1.252 3.26-2.87.249-1.998-2.344-3.18-3.593-3.764-1.998-.935-4.74.947-5.138 3.308Z"/>
  <path fill="#999B64" d="M123.289 240.79c-.56 3.33 3.311 3.472 5.471 3.327 1.496-.101 3.057-1.253 3.259-2.871.25-1.997-2.344-3.18-3.592-3.764-1.998-.934-4.741.948-5.138 3.308Z"/>
  <path fill="#D88D3A" d="M277.738 55.333c-.56 3.33 3.31 3.471 5.47 3.326 1.497-.1 3.057-1.252 3.26-2.87.249-1.998-2.343-3.18-3.592-3.764-1.998-.935-4.741.947-5.138 3.308Z"/>
  <path fill="#999B64" d="M274.595 240.79c-.561 3.33 3.311 3.472 5.471 3.327 1.496-.101 3.056-1.253 3.258-2.871.25-1.997-2.343-3.18-3.591-3.764-1.998-.934-4.741.948-5.138 3.308Zm-148.163-93.043c-.56 3.329 3.311 3.472 5.471 3.326 1.497-.1 3.057-1.252 3.26-2.87.249-1.997-2.344-3.18-3.593-3.764-1.998-.935-4.74.947-5.138 3.308Zm151.306 0c-.56 3.329 3.31 3.472 5.47 3.326 1.497-.1 3.057-1.252 3.26-2.87.249-1.997-2.343-3.18-3.592-3.764-1.998-.935-4.741.947-5.138 3.308ZM12.643 7.554c-.56 3.33 3.311 3.472 5.471 3.326 1.497-.1 3.057-1.252 3.26-2.87.249-1.998-2.344-3.18-3.592-3.764-1.999-.935-4.742.947-5.139 3.308ZM9.5 193.011c-.56 3.33 3.31 3.472 5.47 3.327 1.497-.101 3.058-1.253 3.26-2.87.25-1.998-2.343-3.18-3.592-3.765-1.998-.934-4.74.948-5.138 3.308Zm3.143-88.948c-.56 3.632 3.311 3.788 5.471 3.629 1.497-.11 3.057-1.366 3.26-3.131.249-2.179-2.344-3.469-3.592-4.107-1.999-1.019-4.742 1.034-5.139 3.609Z"/>
  <path fill="#D88D3A" d="M9.5 289.52c-.56 3.633 3.31 3.788 5.47 3.63 1.497-.11 3.058-1.366 3.26-3.132.25-2.179-2.343-3.469-3.592-4.106-1.998-1.019-4.74 1.033-5.138 3.608Zm98.725-221.456c.815-1.39 2.015-1.362 3.251-.944.765.293 1.648.142 2.142.293 1.13.348 1.689 1.404 1.912 2.623.075.414.381 3.534-.125 3.672-.873.24-2.24-.168-3.164-.168-1.222 0-4.773-1.398-4.723-2.98a5.387 5.387 0 0 1 .707-2.496Zm-3.143 185.458c.815-1.391 2.014-1.362 3.251-.945.764.294 1.648.142 2.141.294 1.131.348 1.69 1.404 1.913 2.623.075.414.381 3.533-.125 3.672-.873.239-2.24-.168-3.165-.168-1.221 0-4.772-1.398-4.722-2.98a5.374 5.374 0 0 1 .707-2.496Z"/>
  <path fill="#2C3134" d="M259.531 68.064c.814-1.39 2.014-1.362 3.25-.944.765.293 1.649.142 2.142.293 1.131.348 1.69 1.404 1.912 2.623.076.414.382 3.534-.124 3.672-.874.24-2.241-.168-3.165-.168-1.221 0-4.772-1.398-4.722-2.98a5.364 5.364 0 0 1 .707-2.496Z"/>
  <path fill="#D88D3A" d="M256.388 253.522c.814-1.391 2.013-1.362 3.25-.945.765.294 1.648.142 2.142.294 1.13.348 1.69 1.404 1.912 2.623.075.414.381 3.533-.125 3.672-.873.239-2.239-.168-3.164-.168-1.222 0-4.772-1.398-4.723-2.98a5.375 5.375 0 0 1 .708-2.496Z"/>
  <path fill="#2C3134" d="M108.225 160.478c.815-1.39 2.015-1.362 3.251-.944.765.294 1.648.142 2.142.294 1.13.347 1.689 1.403 1.912 2.623.075.414.381 3.532-.125 3.672-.873.239-2.24-.168-3.164-.168-1.222 0-4.773-1.398-4.723-2.98a5.39 5.39 0 0 1 .707-2.497Zm151.306 0c.814-1.39 2.014-1.362 3.25-.944.765.294 1.649.142 2.142.294 1.131.347 1.69 1.403 1.912 2.623.076.414.382 3.532-.124 3.672-.874.239-2.241-.168-3.165-.168-1.221 0-4.772-1.398-4.722-2.98a5.366 5.366 0 0 1 .707-2.497Z"/>
  <path fill="#999B64" d="M147.204 44.803c.814-1.39 2.013-1.361 3.25-.944.765.294 1.647.142 2.141.294 1.131.347 1.69 1.403 1.912 2.623.076.413.382 3.533-.124 3.671-.873.24-2.24-.168-3.164-.168-1.222 0-4.773-1.398-4.723-2.979a5.365 5.365 0 0 1 .708-2.497Z"/>
  <path fill="#D88D3A" d="M144.06 230.261c.814-1.39 2.014-1.362 3.25-.944.765.293 1.648.142 2.142.293 1.131.348 1.69 1.404 1.912 2.623.075.414.381 3.533-.124 3.672-.874.239-2.241-.168-3.165-.168-1.222 0-4.772-1.398-4.722-2.979a5.366 5.366 0 0 1 .707-2.497Z"/>
  <path fill="#2C3134" d="M147.204 137.218c.814-1.391 2.013-1.362 3.25-.945.765.294 1.647.142 2.141.294 1.131.348 1.69 1.404 1.912 2.623.076.414.382 3.533-.124 3.672-.873.239-2.24-.168-3.164-.168-1.222 0-4.773-1.398-4.723-2.98a5.363 5.363 0 0 1 .708-2.496Z"/>
  <path fill="#D88D3A" d="M30.27 183.739c.815-1.39 2.015-1.361 3.251-.944.765.294 1.648.142 2.142.294 1.13.347 1.69 1.403 1.912 2.622.075.414.381 3.534-.125 3.672-.873.24-2.24-.168-3.164-.168-1.222 0-4.772-1.398-4.723-2.979a5.376 5.376 0 0 1 .708-2.497Z"/>
  <path fill="#999B64" d="M181.678 183.739c.814-1.39 2.014-1.361 3.25-.944.765.294 1.649.142 2.142.294 1.131.347 1.69 1.403 1.912 2.622.076.414.382 3.534-.124 3.672-.874.24-2.241-.168-3.165-.168-1.221 0-4.772-1.398-4.722-2.979a5.366 5.366 0 0 1 .707-2.497Zm-148.264-94.3c.814-1.39 2.014-1.362 3.25-.944.765.293 1.648.142 2.142.293 1.13.348 1.69 1.404 1.912 2.623.075.414.381 3.533-.124 3.671-.874.24-2.24-.167-3.165-.167-1.221 0-4.772-1.398-4.722-2.98a5.37 5.37 0 0 1 .707-2.496Z"/>
  <path fill="#D88D3A" d="M30.27 274.897c.815-1.391 2.015-1.362 3.251-.945.765.294 1.648.142 2.142.294 1.13.348 1.69 1.404 1.912 2.623.075.414.381 3.533-.125 3.671-.873.24-2.24-.167-3.164-.167-1.222 0-4.772-1.399-4.723-2.98a5.368 5.368 0 0 1 .708-2.496Z"/>
  <path fill="#2C3134" d="M184.822 89.439c.814-1.39 2.013-1.362 3.25-.944.765.293 1.647.142 2.141.293 1.131.348 1.691 1.404 1.913 2.623.075.414.381 3.533-.125 3.671-.873.24-2.24-.167-3.164-.167-1.222 0-4.773-1.398-4.723-2.98a5.363 5.363 0 0 1 .708-2.496Z"/>
  <path fill="#D88D3A" d="M181.678 274.897c.814-1.391 2.014-1.362 3.25-.945.765.294 1.649.142 2.142.294 1.131.348 1.69 1.404 1.912 2.623.076.414.382 3.533-.124 3.671-.874.24-2.241-.167-3.165-.167-1.221 0-4.772-1.399-4.722-2.98a5.359 5.359 0 0 1 .707-2.496Z"/>
  <path fill="#999B64" d="M127.761 82.036c-1.519-.68-.431-5.082.53-5.082.962 0 3.563-.232 4.159.661.591.887 1.402 3.3.29 4.116-1.512 1.111-3.298 1.056-4.979.305Z"/>
  <path fill="#2C3134" d="M124.618 267.493c-1.52-.68-.431-5.081.53-5.081.961 0 3.562-.233 4.159.661.591.886 1.401 3.299.291 4.115-1.514 1.112-3.299 1.057-4.98.305Z"/>
  <path fill="#D88D3A" d="M279.067 82.036c-1.52-.68-.431-5.082.53-5.082.961 0 3.562-.232 4.158.661.592.887 1.402 3.3.291 4.116-1.513 1.111-3.299 1.056-4.979.305Z"/>
  <path fill="#2C3134" d="M275.923 267.493c-1.519-.68-.431-5.081.531-5.081.961 0 3.561-.233 4.158.661.591.886 1.401 3.299.291 4.115-1.514 1.112-3.299 1.057-4.98.305Z"/>
  <path fill="#999B64" d="M127.761 174.449c-1.519-.679-.431-5.08.53-5.08.962 0 3.563-.233 4.159.661.591.886 1.402 3.299.29 4.115-1.512 1.111-3.298 1.057-4.979.304Zm151.306 0c-1.52-.679-.431-5.08.53-5.08.961 0 3.562-.233 4.158.661.592.886 1.402 3.299.291 4.115-1.513 1.111-3.299 1.057-4.979.304Z"/>
  <path fill="#2C3134" d="M13.972 33.628c-1.52-.68-.43-5.081.53-5.081.962 0 3.562-.233 4.159.661.591.886 1.401 3.3.29 4.115-1.512 1.112-3.298 1.057-4.979.305Z"/>
  <path fill="#D88D3A" d="M10.829 219.085c-1.52-.68-.431-5.081.53-5.081.961 0 3.562-.232 4.158.662.592.886 1.402 3.299.291 4.115-1.513 1.111-3.299 1.057-4.98.304Zm3.143-88.642c-1.52-.68-.43-5.081.53-5.081.962 0 3.562-.233 4.159.661.591.886 1.401 3.3.29 4.115-1.512 1.111-3.298 1.057-4.979.305Z"/>
  <path fill="#2C3134" d="M166.739 58.775c-1.52-.68-.431-5.082.53-5.082.962 0 3.562-.232 4.158.662.592.886 1.402 3.3.291 4.115-1.513 1.111-3.299 1.057-4.979.305Zm-3.144 185.457c-1.519-.68-.43-5.081.531-5.081.961 0 3.561-.233 4.158.661.591.886 1.401 3.3.291 4.116-1.513 1.111-3.299 1.056-4.98.304Z"/>
  <path fill="#999B64" d="M166.739 151.189c-1.52-.68-.431-5.081.53-5.081.962 0 3.562-.233 4.158.661.592.886 1.402 3.299.291 4.115-1.513 1.112-3.299 1.057-4.979.305ZM52.95 10.996c-1.52-.68-.431-5.081.53-5.081.961 0 3.562-.233 4.158.66.591.887 1.402 3.3.291 4.116-1.513 1.111-3.299 1.057-4.98.305Z"/>
  <path fill="#D88D3A" d="M49.806 196.453c-1.52-.68-.43-5.081.53-5.081.962 0 3.562-.232 4.159.662.591.886 1.401 3.299.29 4.115-1.512 1.111-3.298 1.057-4.979.304Z"/>
  <path fill="#2C3134" d="M204.357 10.996c-1.52-.68-.431-5.081.53-5.081.962 0 3.562-.233 4.158.66.592.887 1.402 3.3.291 4.116-1.513 1.111-3.298 1.057-4.979.305Z"/>
  <path fill="#D88D3A" d="M201.214 196.453c-1.52-.68-.431-5.081.53-5.081.961 0 3.562-.232 4.158.662.592.886 1.402 3.299.291 4.115-1.513 1.111-3.299 1.057-4.979.304Z"/>
  <path fill="#2C3134" d="M52.95 103.41c-1.52-.68-.431-5.08.53-5.08.961 0 3.562-.234 4.158.66.591.887 1.402 3.3.291 4.116-1.513 1.111-3.299 1.056-4.98.304Z"/>
  <path fill="#999B64" d="M49.806 291.068c-1.52-.68-.43-5.081.53-5.081.962 0 3.562-.233 4.159.661.591.886 1.401 3.3.29 4.116-1.512 1.111-3.298 1.056-4.979.304ZM204.357 103.41c-1.52-.68-.431-5.08.53-5.08.962 0 3.562-.234 4.158.66.592.887 1.402 3.3.291 4.116-1.513 1.111-3.298 1.056-4.979.304Zm-3.143 185.458c-1.52-.68-.431-5.081.53-5.081.961 0 3.562-.233 4.158.661.592.886 1.402 3.299.291 4.115-1.513 1.112-3.299 1.057-4.979.305Z"/>
  <path fill="#2C3134" d="M149.353 66.891c-1.818-.142-3.594.36-4.437 1.981-1.115 2.143 1.048 3.26 2.652 3.903 1.308.525 3.753.42 5.148.196 1.055-.17 1.837.534 2.581-.196.455-.447.842-2.91.452-3.512-.52-.8-1.441-1.125-2.219-1.615-.501-.317-1.265-.36-1.837-.425-.776-.088-1.571-.271-2.34-.332Z"/>
  <path fill="#D88D3A" d="M146.21 252.349c-1.818-.143-3.594.36-4.437 1.981-1.115 2.143 1.048 3.259 2.651 3.903 1.308.525 3.754.419 5.148.195 1.056-.169 1.838.534 2.582-.195.455-.447.842-2.91.452-3.512-.52-.801-1.441-1.125-2.219-1.615-.501-.317-1.265-.36-1.837-.426-.776-.088-1.571-.271-2.34-.331Zm3.143-93.044c-1.818-.142-3.594.36-4.437 1.982-1.115 2.143 1.048 3.259 2.652 3.903 1.308.525 3.753.419 5.148.195 1.055-.169 1.837.534 2.581-.195.455-.447.842-2.91.452-3.512-.52-.801-1.441-1.125-2.219-1.615-.501-.317-1.265-.36-1.837-.426-.776-.088-1.571-.271-2.34-.332Z"/>
  <path fill="#999B64" d="M35.564 19.112c-1.818-.142-3.594.36-4.437 1.982-1.115 2.142 1.048 3.258 2.652 3.902 1.307.525 3.753.42 5.148.196 1.055-.17 1.837.534 2.58-.196.456-.447.843-2.91.453-3.511-.52-.802-1.441-1.125-2.219-1.616-.501-.316-1.265-.36-1.837-.425-.776-.088-1.57-.271-2.34-.332Z"/>
  <path fill="#D88D3A" d="M32.42 204.57c-1.817-.143-3.593.359-4.437 1.981-1.114 2.143 1.048 3.259 2.652 3.903 1.308.525 3.753.42 5.148.196 1.056-.17 1.837.534 2.581-.196.456-.447.843-2.91.453-3.512-.52-.801-1.442-1.125-2.22-1.615-.5-.317-1.264-.36-1.836-.425-.776-.088-1.571-.271-2.34-.332Z"/>
  <path fill="#999B64" d="M186.971 19.112c-1.818-.142-3.594.36-4.437 1.982-1.114 2.142 1.048 3.258 2.652 3.902 1.308.525 3.753.42 5.148.196 1.055-.17 1.837.534 2.581-.196.455-.447.842-2.91.452-3.511-.52-.802-1.441-1.125-2.218-1.616-.502-.316-1.266-.36-1.838-.425-.775-.088-1.57-.271-2.34-.332Z"/>
  <path fill="#2C3134" d="M183.828 204.57c-1.818-.143-3.594.359-4.437 1.981-1.115 2.143 1.048 3.259 2.651 3.903 1.308.525 3.754.42 5.148.196 1.056-.17 1.838.534 2.582-.196.455-.447.842-2.91.452-3.512-.52-.801-1.441-1.125-2.219-1.615-.501-.317-1.265-.36-1.837-.425-.776-.088-1.571-.271-2.34-.332Z"/>
  <path fill="#999B64" d="M35.564 111.527c-1.818-.143-3.594.359-4.437 1.981-1.115 2.143 1.048 3.259 2.652 3.903 1.307.525 3.753.419 5.148.196 1.055-.17 1.837.534 2.58-.196.456-.447.843-2.91.453-3.512-.52-.801-1.441-1.125-2.219-1.616-.501-.316-1.265-.36-1.837-.424-.776-.089-1.57-.272-2.34-.332Z"/>
  <path fill="#D88D3A" d="M186.971 111.527c-1.818-.143-3.594.359-4.437 1.981-1.114 2.143 1.048 3.259 2.652 3.903 1.308.525 3.753.419 5.148.196 1.055-.17 1.837.534 2.581-.196.455-.447.842-2.91.452-3.512-.52-.801-1.441-1.125-2.218-1.616-.502-.316-1.266-.36-1.838-.424-.775-.089-1.57-.272-2.34-.332Z"/>
  <path fill="#2C3134" d="M71.398 183.196c-1.818-.143-3.594.359-4.437 1.98-1.115 2.143 1.048 3.259 2.652 3.903 1.308.525 3.753.42 5.148.196 1.055-.169 1.837.534 2.58-.196.456-.447.843-2.91.453-3.512-.52-.801-1.441-1.125-2.219-1.615-.501-.317-1.265-.36-1.837-.425-.776-.088-1.57-.271-2.34-.331Z"/>
  <path fill="#D88D3A" d="M222.805 183.196c-1.817-.143-3.594.359-4.437 1.98-1.114 2.143 1.048 3.259 2.652 3.903 1.308.525 3.753.42 5.148.196 1.056-.169 1.837.534 2.581-.196.456-.447.843-2.91.452-3.512-.519-.801-1.44-1.125-2.218-1.615-.502-.317-1.265-.36-1.838-.425-.775-.088-1.571-.271-2.34-.331ZM74.541 88.266c-1.817-.143-3.593.36-4.437 1.981-1.114 2.143 1.048 3.26 2.652 3.903 1.308.525 3.754.42 5.148.196 1.055-.17 1.837.534 2.581-.196.456-.447.843-2.91.453-3.512-.52-.801-1.442-1.125-2.22-1.615-.5-.317-1.265-.36-1.837-.425-.775-.088-1.57-.271-2.34-.332Zm-3.143 185.458c-1.818-.143-3.594.359-4.437 1.981-1.115 2.142 1.048 3.259 2.652 3.903 1.308.525 3.753.419 5.148.195 1.055-.169 1.837.534 2.58-.195.456-.447.843-2.91.453-3.512-.52-.802-1.441-1.125-2.219-1.616-.501-.316-1.265-.36-1.837-.425-.776-.088-1.57-.271-2.34-.331Z"/>
  <path fill="#2C3134" d="M225.949 88.266c-1.818-.143-3.594.36-4.437 1.981-1.115 2.143 1.047 3.26 2.652 3.903 1.308.525 3.753.42 5.148.196 1.054-.17 1.837.534 2.58-.196.456-.447.843-2.91.453-3.512-.52-.801-1.442-1.125-2.219-1.615-.502-.317-1.265-.36-1.837-.425-.776-.088-1.571-.271-2.34-.332Z"/>
  <path fill="#D88D3A" d="M221.878 274.352c-1.818-.142-3.594.36-4.437 1.982-1.115 2.142 1.048 3.258 2.652 3.902 1.308.525 3.753.42 5.148.196 1.055-.17 1.837.534 2.581-.196.455-.447.842-2.91.452-3.511-.52-.802-1.441-1.126-2.219-1.616-.501-.316-1.265-.36-1.837-.425-.776-.089-1.571-.272-2.34-.332Z"/>
  <path fill="#999B64" d="M169.831 76.332c1.739-.779 3.505-1.131 5.657.435 1.076 1.675.383 2.715-.359 3.525-1.107 1.21-1.566 1.866-3.187 1.61-1.393-.222-4.701-1.575-4.701-3.46 0-.93 1.985-1.84 2.59-2.11Zm-3.144 185.457c1.74-.778 3.506-1.131 5.658.436 1.075 1.675.382 2.714-.359 3.524-1.108 1.21-1.567 1.867-3.187 1.61-1.394-.221-4.701-1.574-4.701-3.459 0-.931 1.985-1.84 2.589-2.111Z"/>
  <path fill="#2C3134" d="M169.831 168.746c1.739-.778 3.505-1.131 5.657.435 1.076 1.675.383 2.715-.359 3.524-1.107 1.21-1.566 1.867-3.187 1.611-1.393-.221-4.701-1.575-4.701-3.46 0-.93 1.985-1.84 2.59-2.11ZM56.042 28.553c1.739-.779 3.505-1.131 5.657.435 1.075 1.675.382 2.715-.359 3.524-1.108 1.21-1.567 1.867-3.187 1.61-1.393-.22-4.7-1.574-4.7-3.459 0-.93 1.984-1.84 2.589-2.11Z"/>
  <path fill="#D88D3A" d="M52.898 214.01c1.74-.778 3.506-1.131 5.657.435 1.076 1.676.383 2.715-.358 3.525-1.108 1.21-1.567 1.867-3.187 1.61-1.394-.221-4.701-1.574-4.701-3.459 0-.931 1.985-1.84 2.59-2.111ZM207.449 28.553c1.739-.779 3.506-1.131 5.657.435 1.076 1.675.383 2.715-.359 3.524-1.107 1.21-1.566 1.867-3.186 1.61-1.394-.22-4.701-1.574-4.701-3.459 0-.93 1.985-1.84 2.589-2.11Z"/>
  <path fill="#999B64" d="M204.305 214.01c1.74-.778 3.506-1.131 5.658.435 1.076 1.676.383 2.715-.359 3.525-1.108 1.21-1.567 1.867-3.187 1.61-1.393-.221-4.701-1.574-4.701-3.459 0-.931 1.985-1.84 2.589-2.111Z"/>
  <path fill="#D88D3A" d="M56.042 120.967c1.739-.778 3.505-1.131 5.657.435 1.075 1.675.382 2.715-.359 3.525-1.108 1.21-1.567 1.866-3.187 1.609-1.393-.22-4.7-1.573-4.7-3.459 0-.93 1.984-1.839 2.589-2.11Z"/>
  <path fill="#2C3134" d="M207.449 120.967c1.739-.778 3.506-1.131 5.657.435 1.076 1.675.383 2.715-.359 3.525-1.107 1.21-1.566 1.866-3.186 1.609-1.394-.22-4.701-1.573-4.701-3.459 0-.93 1.985-1.839 2.589-2.11Z"/>
  <path fill="#999B64" d="M18.322 52.442c1.739-.778 3.506-1.131 5.657.435 1.076 1.675.382 2.715-.359 3.525-1.108 1.21-1.567 1.867-3.187 1.61-1.393-.221-4.7-1.574-4.7-3.46 0-.93 1.985-1.84 2.589-2.11Z"/>
  <path fill="#2C3134" d="M15.178 237.9c1.74-.779 3.506-1.132 5.657.435 1.076 1.675.383 2.715-.358 3.524-1.108 1.211-1.567 1.867-3.187 1.61-1.394-.221-4.701-1.574-4.701-3.459 0-.93 1.985-1.84 2.59-2.11Z"/>
  <path fill="#D88D3A" d="M18.322 149.257c1.739-.778 3.506-1.131 5.657.435 1.076 1.675.382 2.715-.359 3.525-1.108 1.21-1.567 1.867-3.187 1.609-1.393-.22-4.7-1.573-4.7-3.459 0-.93 1.985-1.839 2.589-2.11Z"/>
  <path fill="#999B64" d="M95.019 5.292c1.74-.778 3.506-1.131 5.657.435 1.076 1.675.383 2.715-.358 3.525-1.108 1.21-1.567 1.866-3.187 1.61-1.394-.221-4.701-1.574-4.701-3.46 0-.93 1.985-1.84 2.589-2.11ZM91.876 190.75c1.739-.779 3.505-1.131 5.657.435 1.076 1.675.383 2.715-.359 3.524-1.107 1.21-1.566 1.867-3.186 1.61-1.394-.221-4.701-1.574-4.701-3.459 0-.93 1.984-1.84 2.589-2.11ZM246.427 5.292c1.738-.778 3.505-1.131 5.656.435 1.076 1.675.383 2.715-.358 3.525-1.108 1.21-1.567 1.866-3.187 1.61-1.393-.221-4.701-1.574-4.701-3.46 0-.93 1.985-1.84 2.59-2.11Zm-3.144 185.458c1.739-.779 3.506-1.131 5.658.435 1.075 1.675.382 2.715-.359 3.524-1.108 1.21-1.567 1.867-3.187 1.61-1.394-.221-4.701-1.574-4.701-3.459 0-.93 1.985-1.84 2.589-2.11ZM95.019 97.706c1.74-.778 3.506-1.131 5.657.435 1.076 1.676.383 2.715-.358 3.525-1.108 1.21-1.567 1.867-3.187 1.61-1.394-.221-4.701-1.574-4.701-3.46 0-.93 1.985-1.839 2.589-2.11Z"/>
  <path fill="#2C3134" d="M90.933 286.307c1.739-.778 3.506-1.131 5.657.435 1.076 1.676.383 2.715-.358 3.525-1.108 1.21-1.567 1.866-3.188 1.61-1.393-.221-4.7-1.574-4.7-3.459 0-.931 1.985-1.84 2.59-2.111Z"/>
  <path fill="#D88D3A" d="M246.427 97.706c1.738-.778 3.505-1.131 5.656.435 1.076 1.676.383 2.715-.358 3.525-1.108 1.21-1.567 1.867-3.187 1.61-1.393-.221-4.701-1.574-4.701-3.46 0-.93 1.985-1.839 2.59-2.11Z"/>
  <path fill="#999B64" d="M243.283 283.164c1.739-.778 3.506-1.132 5.658.435 1.075 1.675.382 2.715-.359 3.524-1.108 1.211-1.567 1.867-3.187 1.61-1.394-.221-4.701-1.574-4.701-3.459 0-.93 1.985-1.839 2.589-2.11Z"/>
  <path fill="#D88D3A" d="M74.354 25.994c-1.443-1.133-.588-4.659.125-5.806.54-1.695 3.025-1.053 4.123-.54.573.268 1.78.697 1.865 1.499.115 1.085-.349 2.115-.708 3.103-.495 1.362-.924 2.16-2.432 2.336-.989.115-2.147.056-2.973-.592Z"/>
  <path fill="#999B64" d="M71.211 211.451c-1.443-1.132-.587-4.658.125-5.805.54-1.695 3.025-1.054 4.123-.541.572.268 1.78.697 1.865 1.5.115 1.084-.349 2.114-.708 3.103-.495 1.361-.925 2.16-2.432 2.336-.989.115-2.146.056-2.973-.593Z"/>
  <path fill="#D88D3A" d="M225.761 25.994c-1.443-1.133-.587-4.659.125-5.806.54-1.695 3.025-1.053 4.123-.54.573.268 1.78.697 1.865 1.499.115 1.085-.348 2.115-.708 3.103-.495 1.362-.924 2.16-2.432 2.336-.988.115-2.146.056-2.973-.592Zm-3.143 185.457c-1.443-1.132-.587-4.658.125-5.805.54-1.695 3.025-1.054 4.122-.541.573.268 1.781.697 1.866 1.5.115 1.084-.348 2.114-.708 3.103-.495 1.361-.924 2.16-2.431 2.336-.989.115-2.147.056-2.974-.593Z"/>
  <path fill="#2C3134" d="M74.354 118.408c-1.443-1.133-.588-4.658.125-5.805.54-1.695 3.025-1.054 4.123-.541.573.268 1.78.697 1.865 1.499.115 1.085-.349 2.115-.708 3.104-.495 1.361-.924 2.16-2.432 2.335-.989.116-2.147.057-2.973-.592Zm151.407 0c-1.443-1.133-.587-4.658.125-5.805.54-1.695 3.025-1.054 4.123-.541.573.268 1.78.697 1.865 1.499.115 1.085-.348 2.115-.708 3.104-.495 1.361-.924 2.16-2.432 2.335-.988.116-2.146.057-2.973-.592ZM36.634 50.512c-1.443-1.133-.587-4.658.125-5.806.54-1.695 3.025-1.053 4.123-.54.573.268 1.78.697 1.865 1.5.115 1.084-.349 2.114-.708 3.102-.495 1.362-.924 2.161-2.432 2.336-.989.115-2.146.057-2.973-.592Z"/>
  <path fill="#999B64" d="M33.49 235.969c-1.442-1.133-.587-4.658.126-5.805.54-1.695 3.025-1.054 4.122-.54.573.267 1.78.696 1.865 1.499.116 1.085-.348 2.114-.707 3.103-.495 1.362-.925 2.161-2.432 2.336-.989.115-2.147.056-2.973-.593Z"/>
  <path fill="#D88D3A" d="M188.041 50.512c-1.443-1.133-.587-4.658.126-5.806.539-1.695 3.024-1.053 4.122-.54.573.268 1.78.697 1.865 1.5.115 1.084-.348 2.114-.707 3.102-.495 1.362-.925 2.161-2.432 2.336-.989.115-2.147.057-2.974-.592Z"/>
  <path fill="#999B64" d="M184.898 235.969c-1.443-1.133-.588-4.658.125-5.805.54-1.695 3.025-1.054 4.122-.54.573.267 1.78.696 1.866 1.499.115 1.085-.348 2.114-.708 3.103-.495 1.362-.924 2.161-2.432 2.336-.988.115-2.146.056-2.973-.593ZM36.634 142.926c-1.443-1.133-.587-4.658.125-5.806.54-1.695 3.025-1.053 4.123-.54.573.268 1.78.697 1.865 1.499.115 1.085-.349 2.115-.708 3.103-.495 1.362-.924 2.162-2.432 2.337-.989.114-2.146.056-2.973-.593Z"/>
  <path fill="#2C3134" d="M182.469 139.154c-1.443-1.133-.587-4.658.126-5.805.539-1.696 3.024-1.054 4.122-.541.573.268 1.78.697 1.865 1.5.115 1.084-.348 2.114-.707 3.103-.496 1.361-.925 2.16-2.432 2.336-.99.115-2.147.056-2.974-.593Zm-72.281 50.294c-1.443-1.133-.587-4.658.126-5.805.539-1.696 3.024-1.054 4.121-.541.573.268 1.781.697 1.866 1.499.115 1.085-.349 2.115-.707 3.104-.496 1.361-.925 2.16-2.432 2.335-.99.116-2.147.057-2.974-.592Zm151.306 0c-1.443-1.133-.588-4.658.125-5.805.54-1.696 3.025-1.054 4.122-.541.573.268 1.78.697 1.866 1.499.115 1.085-.349 2.115-.708 3.104-.495 1.361-.924 2.16-2.432 2.335-.989.116-2.146.057-2.973-.592ZM113.332 95.147c-1.443-1.132-.588-4.658.124-5.805.54-1.695 3.026-1.054 4.123-.54.573.267 1.78.696 1.865 1.499.116 1.084-.348 2.114-.708 3.103-.495 1.362-.924 2.16-2.431 2.336-.989.115-2.147.056-2.973-.593Z"/>
  <path fill="#999B64" d="M110.188 280.604c-1.443-1.132-.587-4.657.126-5.805.539-1.695 3.024-1.053 4.121-.54.573.268 1.781.696 1.866 1.499.115 1.085-.349 2.115-.707 3.103-.496 1.362-.925 2.161-2.432 2.336-.99.115-2.147.057-2.974-.593ZM264.637 95.147c-1.443-1.132-.587-4.658.125-5.805.54-1.695 3.025-1.054 4.123-.54.573.267 1.78.696 1.865 1.499.115 1.084-.349 2.114-.708 3.103-.495 1.362-.924 2.16-2.432 2.336-.989.115-2.146.056-2.973-.593Zm-3.143 185.457c-1.443-1.132-.588-4.657.125-5.805.54-1.695 3.025-1.053 4.122-.54.573.268 1.78.696 1.866 1.499.115 1.085-.349 2.115-.708 3.103-.495 1.362-.924 2.161-2.432 2.336-.989.115-2.146.057-2.973-.593Z"/>
  <path fill="#D88D3A" d="M16.133 82.358c-2.054-1.264-.481-4.879 0-6.457 0 0 3.418-.52 4.051 0 .427.35.352 1.691.432 2.165.219 1.291.133 2.646.105 3.947-.042 2.001-3.437 1.053-4.588.345Z"/>
  <path fill="#2C3134" d="M12.99 267.815c-2.054-1.263-.482-4.878 0-6.457 0 0 3.417-.52 4.05 0 .428.351.353 1.692.433 2.166.219 1.291.133 2.646.105 3.946-.043 2.002-3.437 1.054-4.589.345Z"/>
  <path fill="#999B64" d="M16.133 178.615c-2.054-1.158-.481-4.472 0-5.919 0 0 3.418-.476 4.051 0 .427.322.352 1.551.432 1.985.219 1.184.133 2.426.105 3.618-.042 1.835-3.437.966-4.588.316ZM92.83 34.65c-2.053-1.158-.481-4.471 0-5.919 0 0 3.418-.476 4.052 0 .427.321.352 1.55.432 1.985.218 1.184.133 2.426.105 3.618-.043 1.835-3.437.966-4.589.316Zm-3.143 185.458c-2.053-1.158-.481-4.472 0-5.919 0 0 3.418-.477 4.052 0 .426.321.351 1.55.432 1.984.218 1.184.133 2.426.105 3.618-.043 1.835-3.437.966-4.59.317Z"/>
  <path fill="#2C3134" d="M244.237 34.65c-2.053-1.158-.48-4.471 0-5.919 0 0 3.418-.476 4.052 0 .427.321.352 1.55.432 1.985.219 1.184.133 2.426.106 3.618-.044 1.835-3.438.966-4.59.316Z"/>
  <path fill="#999B64" d="M241.094 220.108c-2.053-1.158-.481-4.472 0-5.919 0 0 3.418-.477 4.052 0 .427.321.352 1.55.432 1.984.219 1.184.133 2.426.105 3.618-.043 1.835-3.437.966-4.589.317ZM92.83 127.064c-2.053-1.158-.481-4.471 0-5.919 0 0 3.418-.476 4.052 0 .427.322.352 1.551.432 1.985.218 1.184.133 2.426.105 3.618-.043 1.835-3.437.966-4.589.316Z"/>
  <path fill="#D88D3A" d="M244.237 127.064c-2.053-1.158-.48-4.471 0-5.919 0 0 3.418-.476 4.052 0 .427.322.352 1.551.432 1.985.219 1.184.133 2.426.106 3.618-.044 1.835-3.438.966-4.59.316Z"/>
  <path fill="#999B64" d="M55.11 59.168c-2.053-1.158-.481-4.471 0-5.919 0 0 3.418-.476 4.052 0 .427.321.352 1.55.432 1.985.218 1.184.133 2.425.105 3.618-.043 1.835-3.437.966-4.589.316Zm-3.143 185.458c-2.054-1.158-.481-4.472 0-5.919 0 0 3.418-.477 4.051 0 .427.321.352 1.55.432 1.985.219 1.183.133 2.425.105 3.618-.042 1.835-3.437.966-4.588.316Z"/>
  <path fill="#D88D3A" d="M206.518 59.168c-2.054-1.158-.481-4.471 0-5.919 0 0 3.417-.476 4.052 0 .426.321.351 1.55.432 1.985.218 1.184.132 2.425.104 3.618-.043 1.835-3.437.966-4.588.316Z"/>
  <path fill="#2C3134" d="M203.374 244.626c-2.053-1.158-.481-4.472 0-5.919 0 0 3.418-.477 4.052 0 .427.321.352 1.55.432 1.985.218 1.183.133 2.425.105 3.618-.043 1.835-3.437.966-4.589.316Z"/>
  <path fill="#D88D3A" d="M55.11 151.583c-2.053-1.159-.481-4.472 0-5.919 0 0 3.418-.477 4.052 0 .427.321.352 1.55.432 1.985.218 1.183.133 2.425.105 3.618-.043 1.834-3.437.965-4.589.316Zm151.408-5.344c-2.054-1.158-.481-4.472 0-5.919 0 0 3.417-.477 4.052 0 .426.321.351 1.551.432 1.985.218 1.183.132 2.425.104 3.618-.043 1.834-3.437.965-4.588.316Z"/>
  <path fill="#999B64" d="M131.807 11.39c-2.053-1.159-.48-4.472 0-5.92 0 0 3.419-.476 4.052 0 .427.322.352 1.55.432 1.985.219 1.184.133 2.426.105 3.618-.042 1.835-3.437.966-4.589.316Z"/>
  <path fill="#2C3134" d="M128.665 196.847c-2.054-1.158-.482-4.471 0-5.919 0 0 3.417-.477 4.051 0 .427.321.352 1.55.432 1.985.219 1.183.133 2.425.105 3.618-.043 1.834-3.437.966-4.588.316Z"/>
  <path fill="#D88D3A" d="M283.113 11.39c-2.053-1.159-.481-4.472 0-5.92 0 0 3.418-.476 4.052 0 .427.322.351 1.55.432 1.985.218 1.184.133 2.426.105 3.618-.043 1.835-3.437.966-4.589.316Zm-3.143 185.457c-2.054-1.158-.481-4.471 0-5.919 0 0 3.418-.477 4.051 0 .428.321.353 1.55.432 1.985.219 1.183.134 2.425.105 3.618-.042 1.834-3.436.966-4.588.316Z"/>
  <path fill="#2C3134" d="M131.807 103.804c-2.053-1.158-.48-4.472 0-5.92 0 0 3.419-.476 4.052 0 .427.322.352 1.551.432 1.985.219 1.184.133 2.426.105 3.618-.042 1.835-3.437.966-4.589.317Z"/>
  <path fill="#D88D3A" d="M130.55 289.89c-2.053-1.158-.481-4.472 0-5.919 0 0 3.418-.476 4.052 0 .427.321.352 1.55.432 1.985.219 1.184.133 2.426.105 3.618-.042 1.835-3.437.966-4.589.316Z"/>
  <path fill="#2C3134" d="M283.113 103.804c-2.053-1.158-.481-4.472 0-5.92 0 0 3.418-.476 4.052 0 .427.322.351 1.551.432 1.985.218 1.184.133 2.426.105 3.618-.043 1.835-3.437.966-4.589.317Zm-6.287 185.457c-2.053-1.158-.48-4.472 0-5.919 0 0 3.418-.476 4.052 0 .427.321.352 1.551.432 1.985.219 1.184.133 2.426.105 3.618-.043 1.835-3.437.966-4.589.316Z"/>
  <path fill="#D88D3A" d="M37.16 69.283c1.571-.284 2.21.603 2.553 1.76.184.739.793 1.282.943 1.735.342 1.037-.203 2.105-1.066 3.032-.293.314-2.645 2.495-3.036 2.216-.675-.482-1.099-1.728-1.608-2.397-.673-.884-1.5-4.333-.194-5.29.719-.527 1.58-.907 2.407-1.056Z"/>
  <path fill="#2C3134" d="M34.016 254.741c1.572-.284 2.21.602 2.554 1.76.184.738.793 1.282.942 1.735.342 1.037-.203 2.105-1.066 3.032-.293.314-2.645 2.494-3.036 2.215-.674-.481-1.098-1.727-1.607-2.396-.674-.884-1.5-4.333-.195-5.29.72-.528 1.58-.907 2.408-1.056Zm154.55-185.458c1.573-.284 2.211.603 2.554 1.76.185.739.794 1.282.943 1.735.342 1.037-.203 2.105-1.066 3.032-.293.314-2.645 2.495-3.036 2.216-.675-.482-1.099-1.728-1.608-2.397-.673-.884-1.499-4.333-.194-5.29.719-.527 1.58-.907 2.407-1.056Z"/>
  <path fill="#D88D3A" d="M185.651 250.244c1.573-.283 2.211.603 2.555 1.761.183.738.793 1.282.942 1.734.342 1.037-.203 2.106-1.066 3.032-.293.315-2.645 2.496-3.036 2.217-.674-.482-1.099-1.728-1.607-2.397-.674-.885-1.5-4.333-.195-5.291.72-.527 1.58-.906 2.407-1.056Z"/>
  <path fill="#999B64" d="M37.16 161.698c1.571-.284 2.21.602 2.553 1.759.184.739.793 1.283.943 1.736.342 1.036-.203 2.104-1.066 3.031-.293.315-2.645 2.495-3.036 2.216-.675-.482-1.099-1.727-1.608-2.396-.673-.885-1.5-4.333-.194-5.29.719-.528 1.58-.908 2.407-1.056Z"/>
  <path fill="#2C3134" d="M189.747 153.002c1.572-.283 2.209.603 2.553 1.76.184.739.793 1.282.943 1.735.342 1.037-.203 2.105-1.066 3.032-.293.315-2.645 2.495-3.036 2.216-.675-.482-1.098-1.727-1.608-2.396-.673-.885-1.499-4.334-.194-5.291.719-.527 1.58-.907 2.408-1.056Zm-75.89-131.498c1.572-.283 2.21.603 2.554 1.76.183.739.792 1.283.942 1.735.342 1.037-.203 2.105-1.066 3.032-.293.314-2.645 2.495-3.036 2.216-.674-.482-1.098-1.727-1.607-2.396-.673-.885-1.5-4.334-.195-5.29.719-.528 1.58-.908 2.408-1.057Zm-3.144 185.458c1.572-.284 2.211.603 2.554 1.76.184.738.793 1.282.943 1.735.342 1.037-.203 2.105-1.066 3.031-.293.315-2.645 2.496-3.036 2.217-.675-.482-1.099-1.728-1.608-2.397-.673-.885-1.5-4.333-.194-5.29a5.97 5.97 0 0 1 2.407-1.056Z"/>
  <path fill="#999B64" d="M265.162 21.504c1.572-.283 2.21.603 2.554 1.76.184.739.793 1.283.943 1.735.342 1.037-.203 2.105-1.067 3.032-.292.314-2.644 2.495-3.035 2.216-.675-.482-1.099-1.727-1.608-2.396-.673-.885-1.5-4.334-.194-5.29.719-.528 1.58-.908 2.407-1.057Z"/>
  <path fill="#2C3134" d="M262.019 206.962c1.572-.284 2.21.603 2.554 1.76.184.738.793 1.282.942 1.735.343 1.037-.203 2.105-1.066 3.031-.293.315-2.645 2.496-3.036 2.217-.675-.482-1.098-1.728-1.608-2.397-.673-.885-1.499-4.333-.193-5.29a5.958 5.958 0 0 1 2.407-1.056Z"/>
  <path fill="#D88D3A" d="M113.857 113.918c1.572-.283 2.21.603 2.554 1.761.183.738.792 1.282.942 1.735.342 1.036-.203 2.105-1.066 3.031-.293.315-2.645 2.496-3.036 2.217-.674-.482-1.098-1.728-1.607-2.397-.673-.885-1.5-4.333-.195-5.291a5.995 5.995 0 0 1 2.408-1.056Zm151.305 0c1.572-.283 2.21.603 2.554 1.761.184.738.793 1.282.943 1.735.342 1.036-.203 2.105-1.067 3.031-.292.315-2.644 2.496-3.035 2.217-.675-.482-1.099-1.728-1.608-2.397-.673-.885-1.5-4.333-.194-5.291a5.997 5.997 0 0 1 2.407-1.056Z"/>
  <path fill="#999B64" d="M74.81 42.356c1.572-.283 2.21.603 2.553 1.76.185.739.794 1.283.943 1.736.342 1.036-.203 2.104-1.066 3.031-.293.315-2.645 2.495-3.035 2.216-.675-.481-1.1-1.727-1.608-2.396-.674-.885-1.5-4.333-.195-5.29.72-.528 1.58-.907 2.408-1.056Z"/>
  <path fill="#2C3134" d="M71.666 227.814c1.572-.283 2.21.602 2.554 1.76.184.738.793 1.283.943 1.735.342 1.037-.203 2.105-1.066 3.032-.293.314-2.645 2.495-3.036 2.216-.675-.482-1.099-1.727-1.608-2.397-.673-.884-1.5-4.333-.194-5.29.719-.527 1.58-.907 2.407-1.056Z"/>
  <path fill="#D88D3A" d="M226.217 42.356c1.572-.283 2.21.603 2.554 1.76.184.739.793 1.283.943 1.736.342 1.036-.204 2.104-1.067 3.031-.292.315-2.644 2.495-3.036 2.216-.674-.481-1.098-1.727-1.607-2.396-.673-.885-1.499-4.333-.194-5.29.719-.528 1.579-.907 2.407-1.056Z"/>
  <path fill="#999B64" d="M223.073 227.814c1.573-.283 2.211.602 2.555 1.76.183.738.793 1.283.942 1.735.342 1.037-.203 2.105-1.066 3.032-.293.314-2.645 2.495-3.036 2.216-.674-.482-1.099-1.727-1.607-2.397-.674-.884-1.5-4.333-.195-5.29.72-.527 1.58-.907 2.407-1.056Z"/>
  <path fill="#2C3134" d="M76.136 138.437c1.573-.284 2.21.602 2.555 1.76.183.738.793 1.282.942 1.735.342 1.037-.203 2.105-1.066 3.032-.293.314-2.645 2.494-3.036 2.215-.674-.481-1.099-1.727-1.607-2.396-.674-.884-1.5-4.333-.195-5.29a5.967 5.967 0 0 1 2.407-1.056Zm152.596-5.495c1.572-.283 2.21.603 2.554 1.76.184.738.793 1.283.942 1.735.342 1.037-.203 2.105-1.066 3.032-.293.314-2.645 2.495-3.036 2.216-.674-.482-1.099-1.727-1.607-2.396-.674-.885-1.5-4.333-.195-5.291.72-.527 1.58-.907 2.408-1.056Z"/>
  <path fill="#D88D3A" d="M3.581 0c.238 1.686.05 3.446-1.004 4.784C1.911 5.63.987 5.927 0 5.884V0h3.581Z"/>
  <path fill="#2C3134" d="M149.691 181.921c1.572-.284 2.21.603 2.554 1.761.184.738.793 1.282.942 1.734.342 1.037-.203 2.105-1.066 3.032-.293.314-2.645 2.495-3.035 2.216-.675-.482-1.099-1.727-1.608-2.397-.674-.884-1.5-4.333-.195-5.29.72-.527 1.581-.906 2.408-1.056Zm3.143-91.263c1.572-.284 2.21.603 2.554 1.76.184.739.793 1.282.943 1.735.342 1.037-.204 2.105-1.067 3.031-.292.315-2.644 2.496-3.035 2.217-.675-.482-1.099-1.728-1.608-2.397-.673-.884-1.499-4.333-.194-5.29a5.97 5.97 0 0 1 2.407-1.056Z"/>
  <path fill="#999B64" d="M149.691 276.115c1.572-.283 2.21.603 2.554 1.761.184.738.793 1.282.942 1.735.342 1.036-.203 2.105-1.066 3.031-.293.314-2.645 2.495-3.035 2.216-.675-.481-1.099-1.727-1.608-2.396-.674-.885-1.5-4.333-.195-5.291.72-.527 1.581-.906 2.408-1.056Z"/>
  <path fill="#939878" d="M40.666 0c.02.084.037.169.052.254.075.414.382 3.533-.124 3.672-.547.15-1.287.046-1.99-.052-.421-.059-.829-.116-1.175-.116-1.221 0-4.772-1.398-4.722-2.98A5.39 5.39 0 0 1 32.789 0h7.877Z"/>
  <path fill="#999B64" d="M0 28.147v-6.32l.087.029c.448.172.936.191 1.363.208.302.012.574.023.779.085 1.13.348 1.69 1.404 1.912 2.623.075.414.381 3.533-.125 3.672-.546.15-1.286.047-1.99-.052-.42-.059-.828-.116-1.174-.116-.22 0-.516-.045-.852-.129Z"/>
  <path fill="#D88D3A" d="M0 50.471v-6.227l.244.015c.434.034.875.107 1.317.18.342.057.684.113 1.023.152l.216.023c.538.057 1.18.124 1.621.402.202.128.415.244.627.36.603.331 1.207.663 1.592 1.256.39.601.003 3.064-.453 3.511-.451.443-.917.358-1.449.26-.344-.063-.717-.13-1.132-.064-.946.152-2.376.25-3.606.132Zm0 22.626v-5.421c.06-.127.122-.24.182-.337.54-1.696 3.025-1.054 4.122-.541l.233.105c.616.272 1.558.689 1.632 1.394.1.945-.238 1.848-.565 2.719-.048.128-.096.257-.142.385-.496 1.361-.925 2.16-2.432 2.335-.99.116-2.147.057-2.973-.592A1.246 1.246 0 0 1 0 73.097Z"/>
  <path fill="#2C3134" d="M0 100.183V89.914c1.2.222 2.383.486 2.89 1.785.876 2.249 1.314 5.321-.313 7.385-.666.846-1.59 1.144-2.577 1.099Z"/>
  <path fill="#999B64" d="M0 122.447v-6.319l.087.028c.448.172.936.191 1.363.208.302.012.574.023.779.086 1.13.347 1.69 1.403 1.912 2.622.075.414.381 3.534-.125 3.672-.546.15-1.286.047-1.99-.052-.42-.059-.828-.116-1.174-.116-.22 0-.516-.045-.852-.129Z"/>
  <path fill="#D88D3A" d="M0 144.772v-6.228c.081.004.162.009.244.016.434.033.875.107 1.317.18.342.056.684.113 1.023.151l.216.023c.538.057 1.18.125 1.621.402.202.128.415.245.627.361.603.331 1.207.662 1.592 1.255.39.601.003 3.064-.453 3.511-.451.443-.917.358-1.449.261-.344-.063-.717-.132-1.132-.065-.946.152-2.376.25-3.606.133Z"/>
  <path fill="#2C3134" d="M0 167.398v-5.422c.06-.127.122-.241.182-.337.54-1.696 3.025-1.054 4.122-.541.07.033.148.067.233.105.616.273 1.558.689 1.632 1.395.1.945-.238 1.848-.565 2.718-.048.129-.096.257-.142.385-.496 1.361-.925 2.16-2.432 2.336-.99.115-2.147.056-2.973-.593L0 167.398Z"/>
  <path fill="#D88D3A" d="M0 189.321v-5.749c.583 1.817.819 3.999 0 5.749Z"/>
  <path fill="#2C3134" d="M0 213.972v-5.834c.538.507.846 1.261.997 2.092.076.414.382 3.533-.124 3.672-.256.07-.555.084-.873.07Z"/>
  <path fill="#999B64" d="M0 235.861v-5.751c.45.055.928.143 1.278.364.202.127.414.243.626.36.604.331 1.208.662 1.592 1.255.39.602.004 3.065-.452 3.512-.451.443-.917.357-1.45.26-.344-.063-.716-.131-1.13-.065-.145.023-.3.045-.464.065Zm0 23.319v-7.328c.446.11.857.261 1.16.404l.233.104c.616.273 1.558.689 1.633 1.395.1.944-.238 1.848-.565 2.719l-.143.384c-.482 1.327-.902 2.119-2.318 2.322Z"/>
  <path fill="#2C3134" d="M0 283.756v-10.267c1.195.221 2.37.488 2.874 1.781.876 2.25 1.315 5.322-.312 7.386-.663.841-1.58 1.14-2.562 1.1Z"/>
  <path fill="#D88D3A" d="M3.581 300H0v-4.386c1.2.222 2.383.485 2.89 1.784.308.792.562 1.686.691 2.602Z"/>
  <path fill="#2C3134" d="M40.666 300H32.79c.11-.61.324-1.204.625-1.718.814-1.391 2.014-1.362 3.25-.944.448.171.936.191 1.363.208.303.012.574.022.779.085 1.051.324 1.609 1.259 1.86 2.369Z"/>
  <path fill="#999B64" d="M80.861 300H69.974c.037-.092.08-.185.13-.281.844-1.622 2.62-2.124 4.438-1.981.433.034.875.107 1.317.18.342.056.684.113 1.023.151l.216.024c.537.056 1.18.124 1.62.402.203.127.415.243.627.36.565.31 1.131.62 1.516 1.145Z"/>
  <path fill="#D88D3A" d="M119.426 300h-6.652c.18-.755.439-1.424.682-1.815.54-1.696 3.026-1.054 4.123-.541.07.033.148.068.233.105.616.273 1.557.689 1.632 1.395.031.289.021.574-.018.856Z"/>
  <path fill="#2C3134" d="M156.344 300h-6.582c-.091-1.027.05-2.03.665-2.48a5.97 5.97 0 0 1 2.407-1.056c1.572-.284 2.21.603 2.554 1.76.108.432.361.797.582 1.117.158.226.299.43.361.618l.013.041Z"/>
  <path fill="#D88D3A" d="M192.074 300h-7.878c.111-.61.324-1.204.626-1.718.814-1.391 2.013-1.362 3.25-.944.447.171.936.191 1.362.208.303.012.574.022.779.085 1.051.324 1.609 1.259 1.861 2.369Z"/>
  <path fill="#999B64" d="M232.268 300h-10.887c.038-.092.081-.185.131-.281.843-1.622 2.619-2.124 4.437-1.981.433.034.876.107 1.317.18.342.056.684.113 1.023.151l.216.024c.537.056 1.18.124 1.621.402.203.127.414.243.627.36.564.31 1.13.62 1.515 1.145Z"/>
  <path fill="#2C3134" d="M270.731 300h-6.651c.179-.755.439-1.424.682-1.815.54-1.696 3.025-1.054 4.123-.541.069.033.147.068.232.105.617.273 1.558.689 1.633 1.395.031.289.02.574-.019.856Z"/>
  <path fill="#D88D3A" d="M300 295.614V300h-3.188c-.267-.389-.51-.788-.603-1.262-.315-1.591.271-3.378 2.088-3.538.477.19 1.017.288 1.557.388l.146.026Z"/>
  <path fill="#2C3134" d="M300 273.489v10.267a5.271 5.271 0 0 1-1.165-.19c-1.068-.292-1.045-1.377-1.027-2.283.003-.116.005-.229.005-.336 0-.635-.019-1.288-.277-1.881-.154-.353-.376-.671-.597-.988-.319-.456-.636-.91-.746-1.468-.314-1.591.272-3.378 2.088-3.538.478.19 1.017.288 1.558.388l.161.029Z"/>
  <path fill="#999B64" d="M300 251.852v7.327l-.114.015c-.989.115-2.147.056-2.974-.593-1.443-1.133-.587-4.658.126-5.805.39-1.226 1.797-1.23 2.962-.944Zm0-21.742v5.751c-1.424.174-3.512.211-4.685-.26-1.605-.644-3.767-1.761-2.652-3.903.843-1.621 2.619-2.124 4.437-1.981.433.034.876.107 1.317.18a19.42 19.42 0 0 0 1.239.175c.111.011.226.023.344.038Z"/>
  <path fill="#2C3134" d="M300 208.138v5.834c-.36-.016-.744-.07-1.118-.122-.42-.059-.828-.116-1.174-.116-1.222 0-4.772-1.398-4.723-2.98a5.36 5.36 0 0 1 .708-2.496c.814-1.391 2.013-1.362 3.25-.945.448.172.936.192 1.363.208.302.012.574.023.778.086.362.111.664.294.916.531Z"/>
  <path fill="#D88D3A" d="M300 183.574v5.745a4.669 4.669 0 0 1-.567.922c-.921 1.169-2.334 1.292-3.725.911-1.069-.293-1.046-1.377-1.028-2.283.003-.116.005-.228.005-.336 0-.635-.018-1.288-.277-1.881-.154-.354-.376-.671-.596-.988-.32-.457-.637-.911-.747-1.468-.314-1.591.272-3.378 2.088-3.538.478.189 1.017.288 1.558.387 1.25.229 2.507.46 3.034 1.811.09.232.176.472.255.718Z"/>
  <path fill="#2C3134" d="M300 161.975v5.423c-1.249-1.079-.65-4.058 0-5.423Z"/>
  <path fill="#D88D3A" d="M300 138.544v6.228c-.583-.056-1.121-.159-1.542-.329-1.604-.643-3.766-1.759-2.652-3.902.805-1.549 2.463-2.077 4.194-1.997Z"/>
  <path fill="#999B64" d="M300 116.128v6.32c-1.532-.38-3.912-1.554-3.872-2.851a5.379 5.379 0 0 1 .708-2.497c.795-1.358 1.958-1.362 3.164-.972Z"/>
  <path fill="#2C3134" d="M300 89.914v10.27a5.349 5.349 0 0 1-1.149-.19c-1.069-.291-1.046-1.377-1.027-2.283.002-.115.005-.228.005-.336 0-.634-.019-1.287-.278-1.88-.154-.354-.375-.672-.596-.988-.319-.456-.637-.911-.746-1.469-.315-1.59.271-3.378 2.088-3.538.477.19 1.017.289 1.557.388l.146.026Z"/>
  <path fill="#D88D3A" d="M300 67.675v5.422c-1.249-1.078-.65-4.057 0-5.422Zm0-23.431v6.227c-.583-.055-1.121-.159-1.542-.328-1.604-.644-3.766-1.76-2.652-3.903.805-1.549 2.463-2.076 4.194-1.996Z"/>
  <path fill="#999B64" d="M300 21.827v6.32c-1.532-.38-3.912-1.553-3.872-2.85a5.376 5.376 0 0 1 .708-2.497c.795-1.358 1.958-1.362 3.164-.973Z"/>
  <path fill="#D88D3A" d="M300 5.883a5.271 5.271 0 0 1-1.149-.189c-1.069-.292-1.046-1.377-1.027-2.283.002-.116.005-.228.005-.336 0-.635-.019-1.288-.278-1.88-.154-.354-.375-.672-.596-.988a8.058 8.058 0 0 1-.143-.207H300v5.883Z"/>
  <path fill="#939878" d="M264.08 0c-.346 1.46-.394 3.244.557 3.99.827.65 1.984.708 2.973.593 1.508-.175 1.937-.974 2.432-2.336.046-.128.095-.256.143-.385.227-.604.459-1.224.546-1.862h-6.651Z"/>
  <path fill="#999B64" d="M232.268 0h-10.887c-.792 1.96 1.25 3.007 2.783 3.622 1.308.525 3.753.42 5.148.195.414-.066.786.002 1.131.065.532.097.998.183 1.449-.26.456-.447.843-2.91.453-3.512a2.138 2.138 0 0 0-.077-.11Z"/>
  <path fill="#D88D3A" d="M192.074 0c.018.084.036.169.052.254.075.414.381 3.533-.125 3.672-.546.15-1.286.046-1.99-.052-.421-.059-.829-.116-1.174-.116-1.222 0-4.773-1.398-4.723-2.98a5.39 5.39 0 0 1 .082-.778h7.878Z"/>
  <path fill="#2C3134" d="M156.344 0c.314 1.024-.228 2.076-1.08 2.99-.292.315-2.644 2.496-3.035 2.216-.422-.301-.746-.902-1.055-1.473-.184-.342-.362-.673-.553-.923-.356-.468-.755-1.655-.859-2.81h6.582Z"/>
  <path fill="#D88D3A" d="M112.774 0c-.346 1.46-.393 3.244.558 3.99.826.65 1.984.708 2.973.593 1.507-.175 1.936-.974 2.431-2.336l.143-.385c.227-.604.46-1.224.547-1.862h-6.652Z"/>
  <path fill="#999B64" d="M80.861 0H69.974c-.792 1.96 1.25 3.007 2.782 3.622 1.308.525 3.754.42 5.148.195.415-.066.787.002 1.132.065.532.097.997.183 1.45-.26.454-.447.841-2.91.451-3.512a2.257 2.257 0 0 0-.076-.11Z"/>
</svg>
