<svg xmlns="http://www.w3.org/2000/svg" width="254" height="256" fill="none" viewBox="0 0 254 256">
  <path fill="#CB8D24" d="M156.585 65.707v-5.12h5.12v5.12h-5.12Z"/>
  <path fill="#404040" d="M156.585 161.706v-5.12h5.12v5.12h-5.12Zm0-127.999v-5.12h5.12v5.12h-5.12Z"/>
  <path fill="#CB8D24" d="M156.585 129.706v-5.12h5.12v5.12h-5.12Z"/>
  <path fill="#404040" d="M156.585 97.707v-5.12h5.12v5.12h-5.12Z"/>
  <path fill="#CB8D24" d="M156.585 193.706v-5.12h5.12v5.12h-5.12Z"/>
  <path fill="#404040" d="M156.585 225.706v-5.12h5.12v5.12h-5.12Zm-96-159.999v-5.12h5.12v5.12h-5.12Z"/>
  <path fill="#CB8D24" d="M60.585 161.706v-5.12h5.12v5.12h-5.12Zm0-127.999v-5.12h5.12v5.12h-5.12Z"/>
  <path fill="#404040" d="M60.585 129.706v-5.12h5.12v5.12h-5.12Z"/>
  <path fill="#CB8D24" d="M60.585 97.707v-5.12h5.12v5.12h-5.12Z"/>
  <path fill="#404040" d="M60.585 193.706v-5.12h5.12v5.12h-5.12Z"/>
  <path fill="#CB8D24" d="M60.585 225.706v-5.12h5.12v5.12h-5.12Zm160-159.999v-5.12h5.12v5.12h-5.12Z"/>
  <path fill="#404040" d="M220.585 161.706v-5.12h5.12v5.12h-5.12Zm0-127.999v-5.12h5.12v5.12h-5.12Z"/>
  <path fill="#CB8D24" d="M220.585 129.706v-5.12h5.12v5.12h-5.12Z"/>
  <path fill="#404040" d="M220.585 97.707v-5.12h5.12v5.12h-5.12Z"/>
  <path fill="#CB8D24" d="M220.585 193.706v-5.12h5.12v5.12h-5.12Z"/>
  <path fill="#404040" d="M220.585 225.706v-5.12h5.12v5.12h-5.12Zm-96-159.999v-5.12h5.12v5.12h-5.12Z"/>
  <path fill="#CB8D24" d="M124.585 161.706v-5.12h5.12v5.12h-5.12Zm0-127.999v-5.12h5.12v5.12h-5.12Z"/>
  <path fill="#404040" d="M124.585 129.706v-5.12h5.12v5.12h-5.12Z"/>
  <path fill="#CB8D24" d="M124.585 97.707v-5.12h5.12v5.12h-5.12Z"/>
  <path fill="#404040" d="M124.585 193.706v-5.12h5.12v5.12h-5.12Z"/>
  <path fill="#CB8D24" d="M124.585 225.706v-5.12h5.12v5.12h-5.12Zm-96-159.999v-5.12h5.12v5.12h-5.12Z"/>
  <path fill="#404040" d="M28.585 161.706v-5.12h5.12v5.12h-5.12Zm0-127.999v-5.12h5.12v5.12h-5.12Z"/>
  <path fill="#CB8D24" d="M28.585 129.706v-5.12h5.12v5.12h-5.12Z"/>
  <path fill="#404040" d="M28.585 97.707v-5.12h5.12v5.12h-5.12Z"/>
  <path fill="#CB8D24" d="M28.585 193.706v-5.12h5.12v5.12h-5.12Z"/>
  <path fill="#404040" d="M28.585 225.706v-5.12h5.12v5.12h-5.12Zm160-159.999v-5.12h5.12v5.12h-5.12Z"/>
  <path fill="#CB8D24" d="M188.585 161.706v-5.12h5.12v5.12h-5.12Zm0-127.999v-5.12h5.12v5.12h-5.12Z"/>
  <path fill="#404040" d="M188.585 129.706v-5.12h5.12v5.12h-5.12Z"/>
  <path fill="#CB8D24" d="M188.585 97.707v-5.12h5.12v5.12h-5.12Z"/>
  <path fill="#404040" d="M188.585 193.706v-5.12h5.12v5.12h-5.12Z"/>
  <path fill="#CB8D24" d="M188.585 225.706v-5.12h5.12v5.12h-5.12Zm-96-159.999v-5.12h5.12v5.12h-5.12Z"/>
  <path fill="#404040" d="M92.585 161.706v-5.12h5.12v5.12h-5.12Zm0-127.999v-5.12h5.12v5.12h-5.12Z"/>
  <path fill="#CB8D24" d="M92.585 129.706v-5.12h5.12v5.12h-5.12Z"/>
  <path fill="#404040" d="M92.585 97.707v-5.12h5.12v5.12h-5.12Z"/>
  <path fill="#CB8D24" d="M92.585 193.706v-5.12h5.12v5.12h-5.12Z"/>
  <path fill="#404040" d="M92.585 225.706v-5.12h5.12v5.12h-5.12ZM2.56 0v2.56H0V0h2.56Z"/>
  <path fill="#CB8D24" d="M0 33.707v-5.12h2.56v5.12H0Z"/>
  <path fill="#404040" d="M0 65.707v-5.12h2.56v5.12H0Z"/>
  <path fill="#CB8D24" d="M0 97.707v-5.12h2.56v5.12H0Z"/>
  <path fill="#404040" d="M0 129.706v-5.12h2.56v5.12H0Z"/>
  <path fill="#CB8D24" d="M0 161.706v-5.12h2.56v5.12H0Z"/>
  <path fill="#404040" d="M0 193.706v-5.12h2.56v5.12H0Z"/>
  <path fill="#CB8D24" d="M0 225.706v-5.12h2.56v5.12H0Z"/>
  <path fill="#404040" d="M2.56 256H0v-2.56h2.56V256Z"/>
  <path fill="#CB8D24" d="M33.705 256h-5.12v-2.56h5.12V256Z"/>
  <path fill="#404040" d="M65.705 256h-5.12v-2.56h5.12V256Z"/>
  <path fill="#CB8D24" d="M97.705 256h-5.12v-2.56h5.12V256Z"/>
  <path fill="#404040" d="M129.705 256h-5.12v-2.56h5.12V256Z"/>
  <path fill="#CB8D24" d="M161.705 256h-5.12v-2.56h5.12V256Z"/>
  <path fill="#404040" d="M193.705 256h-5.12v-2.56h5.12V256Z"/>
  <path fill="#CB8D24" d="M225.705 256h-5.12v-2.56h5.12V256Z"/>
  <path fill="#404040" d="M256 253.44V256h-2.56v-2.56H256Z"/>
  <path fill="#CB8D24" d="M256 220.586v5.12h-2.56v-5.12H256Z"/>
  <path fill="#404040" d="M256 188.586v5.12h-2.56v-5.12H256Z"/>
  <path fill="#CB8D24" d="M256 156.586v5.12h-2.56v-5.12H256Z"/>
  <path fill="#404040" d="M256 124.586v5.12h-2.56v-5.12H256Z"/>
  <path fill="#CB8D24" d="M256 92.587v5.12h-2.56v-5.12H256Z"/>
  <path fill="#404040" d="M256 60.587v5.12h-2.56v-5.12H256Z"/>
  <path fill="#CB8D24" d="M256 28.587v5.12h-2.56v-5.12H256Z"/>
  <path fill="#404040" d="M253.44 0v2.56H256V0h-2.56Z"/>
  <path fill="#CB8D24" d="M220.585 0v2.56h5.12V0h-5.12Z"/>
  <path fill="#404040" d="M188.585 0v2.56h5.12V0h-5.12Z"/>
  <path fill="#CB8D24" d="M156.585 0v2.56h5.12V0h-5.12Z"/>
  <path fill="#404040" d="M124.585 0v2.56h5.12V0h-5.12Z"/>
  <path fill="#CB8D24" d="M92.585 0v2.56h5.12V0h-5.12Z"/>
  <path fill="#404040" d="M60.585 0v2.56h5.12V0h-5.12Z"/>
  <path fill="#CB8D24" d="M28.585 0v2.56h5.12V0h-5.12Z"/>
</svg>
